#!OML:ASF H:\Male1\Project 1\Capture day 1\Session 1\Male1.ASF
:FULLY-SPECIFIED
:DEGREES
465
root 8.24545 15.2721 -2.05878 2.4277 -72.1712 -4.51434
lowerback 13.6934 2.63486 2.85003
upperback 4.89291 3.63597 -1.0849
thorax -2.25422 1.76369 -3.28562
lowerneck -11.4854 1.78799 8.01304
upperneck 4.4553 1.38437 -2.68659
head 3.64139 0.71745 -2.2621
rclavicle -9.34288e-015 -1.37161e-014
rhumerus -3.99999 17.9652 -69.1548
rradius 78.8084
rwrist -13.7944
rhand -22.0629 13.0909
rfingers 7.12502
rthumb 4.34806 -16.8445
lclavicle -9.34288e-015 -1.37161e-014
lhumerus -32.9484 19.6143 67.9817
lradius 21.4996
lwrist -16.335
lhand -7.57412 11.0806
lfingers 7.12502
lthumb 18.3186 40.238
rfemur 0.322513 14.2477 26.4332
rtibia 24.1577
rfoot -39.596 -30.2707
rtoes -7.75794
lfemur -17.9307 -8.97588 -14.8523
ltibia 39.144
lfoot -21.0443 12.3011
ltoes -20.243
466
root 8.29497 15.2678 -2.11145 1.82978 -71.7266 -4.06729
lowerback 13.7302 2.5922 2.8059
upperback 4.90161 3.5768 -1.0473
thorax -2.27495 1.73359 -3.2148
lowerneck -11.4724 1.7385 8.00303
upperneck 4.93711 1.34145 -2.92407
head 3.40049 0.679425 -2.09624
rclavicle -2.10712e-014 -5.96354e-016
rhumerus -6.93456 17.6021 -70.3573
rradius 77.4389
rwrist -14.4704
rhand -21.2892 11.8551
rfingers 7.12502
rthumb 5.09513 -18.0637
lclavicle -2.10712e-014 -5.96354e-016
lhumerus -34.2898 22.9374 65.7957
lradius 19.6162
lwrist -22.0441
lhand -5.19785 10.53
lfingers 7.12502
lthumb 20.6033 39.4566
rfemur 0.113539 14.0272 26.439
rtibia 24.4768
rfoot -39.9037 -30.201
rtoes -7.50553
lfemur -17.9954 -8.26962 -15.0106
ltibia 39.9558
lfoot -21.6571 11.9618
ltoes -22.1332
467
root 8.34536 15.2639 -2.15903 1.18931 -71.3888 -3.54848
lowerback 13.7502 2.56721 2.69733
upperback 4.88946 3.53241 -1.02598
thorax -2.31036 1.71022 -3.12667
lowerneck -11.427 1.69962 7.9666
upperneck 5.10306 1.30146 -2.93621
head 3.44156 0.661945 -2.09697
rclavicle -5.64548e-014 2.78299e-015
rhumerus -9.72348 17.1156 -71.5947
rradius 75.8802
rwrist -15.1694
rhand -20.4222 10.5568
rfingers 7.12502
rthumb 5.93218 -19.3401
lclavicle -5.64548e-014 2.78299e-015
lhumerus -35.8592 26.1027 63.4417
lradius 18.2351
lwrist -26.4861
lhand -3.21856 10.5695
lfingers 7.12502
lthumb 22.5042 39.2781
rfemur -0.136389 13.9454 26.4007
rtibia 24.8432
rfoot -40.2292 -30.1402
rtoes -7.0934
lfemur -17.9989 -7.49569 -15.2634
ltibia 40.9008
lfoot -22.2534 11.8383
ltoes -23.4389
468
root 8.39646 15.2605 -2.2013 0.552361 -71.1504 -3.00329
lowerback 13.7577 2.55485 2.55178
upperback 4.85764 3.4999 -1.01578
thorax -2.3603 1.69237 -3.03107
lowerneck -11.3799 1.67494 7.89973
upperneck 5.253 1.28241 -2.91791
head 3.4782 0.655287 -2.08213
rclavicle -2.52953e-014 7.95139e-016
rhumerus -12.3258 16.4942 -72.827
rradius 74.1194
rwrist -15.9012
rhand -19.4714 9.27819
rfingers 7.12502
rthumb 6.85009 -20.591
lclavicle -2.52953e-014 7.95139e-016
lhumerus -37.5412 28.6806 61.2401
lradius 17.3749
lwrist -29.2614
lhand -1.92561 11.0551
lfingers 7.12502
lthumb 23.7447 39.6081
rfemur -0.421269 13.9934 26.3328
rtibia 25.2348
rfoot -40.567 -30.057
rtoes -6.4194
lfemur -17.9449 -6.6907 -15.5823
ltibia 41.9299
lfoot -22.7855 11.907
ltoes -24.3701
469
root 8.44793 15.258 -2.23762 0.0172704 -71.0082 -2.50817
lowerback 13.727 2.55263 2.41017
upperback 4.8014 3.48159 -1.01088
thorax -2.41357 1.68188 -2.94405
lowerneck -11.3278 1.66734 7.80349
upperneck 5.36784 1.28909 -2.88107
head 3.50439 0.660945 -2.05522
rclavicle 2.48481e-016 1.31198e-014
rhumerus -14.7184 15.7656 -74.0175
rradius 72.1466
rwrist -16.6167
rhand -18.5504 7.98693
rfingers 7.12502
rthumb 7.73915 -21.8514
lclavicle 2.48481e-016 1.31198e-014
lhumerus -39.1278 30.3398 59.5587
lradius 17.0028
lwrist -30.1742
lhand -1.41669 11.9286
lfingers 7.12502
lthumb 24.2328 40.4174
rfemur -0.764566 14.1495 26.2464
rtibia 25.6306
rfoot -40.8975 -29.9305
rtoes -5.51265
lfemur -17.855 -5.89787 -15.9275
ltibia 42.9736
lfoot -23.2554 12.1059
ltoes -25.0776
